<svg width="931" height="325" viewBox="0 0 931 325" fill="none" xmlns="http://www.w3.org/2000/svg">
<path d="M338.773 231.578C338.773 236.331 337.797 240.79 335.844 244.957C333.956 249.124 331.384 252.77 328.129 255.895C324.939 259.02 321.195 261.493 316.898 263.316C312.667 265.074 308.174 265.953 303.422 265.953H293.363C288.611 265.953 284.086 265.074 279.789 263.316C275.557 261.493 271.814 259.02 268.559 255.895C265.368 252.77 262.797 249.124 260.844 244.957C258.956 240.79 258.012 236.331 258.012 231.578V226.012L270.609 223.961V231.578C270.609 234.703 271.228 237.633 272.465 240.367C273.767 243.036 275.492 245.413 277.641 247.496C279.789 249.514 282.263 251.109 285.062 252.281C287.927 253.453 290.922 254.039 294.047 254.039H302.836C305.961 254.039 308.923 253.453 311.723 252.281C314.522 251.109 316.996 249.514 319.145 247.496C321.293 245.413 322.986 243.036 324.223 240.367C325.525 237.633 326.176 234.703 326.176 231.578V227.379C326.176 222.561 325.232 218.557 323.344 215.367C321.456 212.177 318.949 209.475 315.824 207.262C312.699 204.983 309.151 203.062 305.18 201.5C301.273 199.938 297.237 198.375 293.07 196.812C288.904 195.25 284.835 193.525 280.863 191.637C276.957 189.749 273.441 187.405 270.316 184.605C267.191 181.741 264.685 178.258 262.797 174.156C260.909 170.055 259.965 165.009 259.965 159.02V156.383C259.965 151.63 260.844 147.171 262.602 143.004C264.424 138.837 266.898 135.191 270.023 132.066C273.148 128.941 276.794 126.5 280.961 124.742C285.193 122.919 289.685 122.008 294.438 122.008H303.422C308.174 122.008 312.634 122.919 316.801 124.742C320.967 126.5 324.613 128.941 327.738 132.066C330.863 135.191 333.305 138.837 335.062 143.004C336.885 147.171 337.797 151.63 337.797 156.383V159.996L325.199 162.047V156.383C325.199 153.258 324.613 150.361 323.441 147.691C322.27 144.957 320.674 142.581 318.656 140.562C316.638 138.544 314.262 136.949 311.527 135.777C308.858 134.605 305.961 134.02 302.836 134.02H295.023C291.898 134.02 288.969 134.605 286.234 135.777C283.565 136.949 281.189 138.544 279.105 140.562C277.087 142.581 275.492 144.957 274.32 147.691C273.148 150.361 272.562 153.258 272.562 156.383V159.02C272.562 163.512 273.507 167.288 275.395 170.348C277.283 173.408 279.789 176.044 282.914 178.258C286.039 180.406 289.555 182.294 293.461 183.922C297.432 185.484 301.501 187.112 305.668 188.805C309.835 190.432 313.871 192.255 317.777 194.273C321.749 196.227 325.297 198.668 328.422 201.598C331.547 204.462 334.053 207.978 335.941 212.145C337.829 216.311 338.773 221.389 338.773 227.379V231.578ZM444.73 175.816C444.73 180.569 443.819 185.029 441.996 189.195C440.238 193.362 437.797 197.008 434.672 200.133C431.547 203.258 427.868 205.732 423.637 207.555C419.47 209.312 415.01 210.191 410.258 210.191H378.52V264H365.922V123.961H410.258C415.01 123.961 419.47 124.872 423.637 126.695C427.868 128.453 431.547 130.895 434.672 134.02C437.797 137.145 440.238 140.823 441.996 145.055C443.819 149.221 444.73 153.681 444.73 158.434V175.816ZM432.133 158.434C432.133 155.309 431.547 152.411 430.375 149.742C429.203 147.008 427.576 144.632 425.492 142.613C423.474 140.53 421.098 138.902 418.363 137.73C415.694 136.559 412.797 135.973 409.672 135.973H378.52V198.18H409.672C412.797 198.18 415.694 197.594 418.363 196.422C421.098 195.25 423.474 193.655 425.492 191.637C427.576 189.618 429.203 187.275 430.375 184.605C431.547 181.871 432.133 178.941 432.133 175.816V158.434ZM545.609 231.578C545.609 236.331 544.698 240.79 542.875 244.957C541.117 249.124 538.676 252.77 535.551 255.895C532.426 259.02 528.78 261.493 524.613 263.316C520.447 265.074 515.987 265.953 511.234 265.953H501.273C496.521 265.953 492.029 265.074 487.797 263.316C483.63 261.493 479.984 259.02 476.859 255.895C473.734 252.77 471.26 249.124 469.438 244.957C467.68 240.79 466.801 236.331 466.801 231.578V156.383C466.801 151.63 467.68 147.171 469.438 143.004C471.26 138.837 473.734 135.191 476.859 132.066C479.984 128.941 483.63 126.5 487.797 124.742C492.029 122.919 496.521 122.008 501.273 122.008H511.234C515.987 122.008 520.447 122.919 524.613 124.742C528.78 126.5 532.426 128.941 535.551 132.066C538.676 135.191 541.117 138.837 542.875 143.004C544.698 147.171 545.609 151.63 545.609 156.383V231.578ZM533.012 156.383C533.012 153.258 532.426 150.361 531.254 147.691C530.082 144.957 528.487 142.581 526.469 140.562C524.451 138.544 522.074 136.949 519.34 135.777C516.671 134.605 513.773 134.02 510.648 134.02H501.859C498.734 134.02 495.805 134.605 493.07 135.777C490.401 136.949 488.025 138.544 485.941 140.562C483.923 142.581 482.328 144.957 481.156 147.691C479.984 150.361 479.398 153.258 479.398 156.383V231.578C479.398 234.703 479.984 237.633 481.156 240.367C482.328 243.036 483.923 245.413 485.941 247.496C488.025 249.514 490.401 251.109 493.07 252.281C495.805 253.453 498.734 254.039 501.859 254.039H510.648C513.773 254.039 516.671 253.453 519.34 252.281C522.074 251.109 524.451 249.514 526.469 247.496C528.487 245.413 530.082 243.036 531.254 240.367C532.426 237.633 533.012 234.703 533.012 231.578V156.383ZM609.672 135.973V264H597.074V135.973H563.676V123.961H643.07V135.973H609.672ZM661.137 264V123.961H673.734V251.988H727.348V264H661.137ZM824.125 231.578C824.125 236.331 823.214 240.79 821.391 244.957C819.633 249.124 817.191 252.77 814.066 255.895C810.941 259.02 807.296 261.493 803.129 263.316C798.962 265.074 794.503 265.953 789.75 265.953H779.789C775.036 265.953 770.544 265.074 766.312 263.316C762.146 261.493 758.5 259.02 755.375 255.895C752.25 252.77 749.776 249.124 747.953 244.957C746.195 240.79 745.316 236.331 745.316 231.578V156.383C745.316 151.63 746.195 147.171 747.953 143.004C749.776 138.837 752.25 135.191 755.375 132.066C758.5 128.941 762.146 126.5 766.312 124.742C770.544 122.919 775.036 122.008 779.789 122.008H789.75C794.503 122.008 798.962 122.919 803.129 124.742C807.296 126.5 810.941 128.941 814.066 132.066C817.191 135.191 819.633 138.837 821.391 143.004C823.214 147.171 824.125 151.63 824.125 156.383V231.578ZM811.527 156.383C811.527 153.258 810.941 150.361 809.77 147.691C808.598 144.957 807.003 142.581 804.984 140.562C802.966 138.544 800.59 136.949 797.855 135.777C795.186 134.605 792.289 134.02 789.164 134.02H780.375C777.25 134.02 774.32 134.605 771.586 135.777C768.917 136.949 766.54 138.544 764.457 140.562C762.439 142.581 760.844 144.957 759.672 147.691C758.5 150.361 757.914 153.258 757.914 156.383V231.578C757.914 234.703 758.5 237.633 759.672 240.367C760.844 243.036 762.439 245.413 764.457 247.496C766.54 249.514 768.917 251.109 771.586 252.281C774.32 253.453 777.25 254.039 780.375 254.039H789.164C792.289 254.039 795.186 253.453 797.855 252.281C800.59 251.109 802.966 249.514 804.984 247.496C807.003 245.413 808.598 243.036 809.77 240.367C810.941 237.633 811.527 234.703 811.527 231.578V156.383ZM930.961 231.578C930.961 236.331 930.049 240.79 928.227 244.957C926.469 249.124 924.027 252.77 920.902 255.895C917.777 259.02 914.132 261.493 909.965 263.316C905.798 265.074 901.339 265.953 896.586 265.953H886.625C881.872 265.953 877.38 265.074 873.148 263.316C868.982 261.493 865.336 259.02 862.211 255.895C859.086 252.77 856.612 249.124 854.789 244.957C853.031 240.79 852.152 236.331 852.152 231.578V156.383C852.152 151.63 853.031 147.171 854.789 143.004C856.612 138.837 859.086 135.191 862.211 132.066C865.336 128.941 868.982 126.5 873.148 124.742C877.38 122.919 881.872 122.008 886.625 122.008H896.586C901.339 122.008 905.798 122.919 909.965 124.742C914.132 126.5 917.777 128.941 920.902 132.066C924.027 135.191 926.469 138.837 928.227 143.004C930.049 147.171 930.961 151.63 930.961 156.383V162.047L918.363 164V156.383C918.363 153.258 917.777 150.361 916.605 147.691C915.434 144.957 913.839 142.581 911.82 140.562C909.802 138.544 907.426 136.949 904.691 135.777C902.022 134.605 899.125 134.02 896 134.02H887.211C884.086 134.02 881.156 134.605 878.422 135.777C875.753 136.949 873.376 138.544 871.293 140.562C869.275 142.581 867.68 144.957 866.508 147.691C865.336 150.361 864.75 153.258 864.75 156.383V231.578C864.75 234.703 865.336 237.633 866.508 240.367C867.68 243.036 869.275 245.413 871.293 247.496C873.376 249.514 875.753 251.109 878.422 252.281C881.156 253.453 884.086 254.039 887.211 254.039H896C899.125 254.039 902.022 253.453 904.691 252.281C907.426 251.109 909.802 249.514 911.82 247.496C913.839 245.413 915.434 243.036 916.605 240.367C917.777 237.633 918.363 234.703 918.363 231.578V223.961L930.961 226.012V231.578Z" fill="#272727"/>
<path d="M117.523 71.244C116.244 62.2785 108.463 57.3688 104.732 56.0347C95.1364 53.633 87.9429 57.2356 83.9453 63.2391C79.9478 69.2425 79.1488 78.7685 84.7448 85.1724C87.5155 88.3431 91.9385 91.2561 96.737 93.6576C103.931 97.2578 117.522 103.264 125.516 106.786C129.285 108.367 132.772 109.933 136 111.475C161.289 123.561 170.715 134.233 175.742 139.924L175.885 140.086C181.507 146.45 186.278 153.695 189.58 160.899C193.803 170.114 196.889 179.116 197.907 192C198.145 195.012 198.27 198.236 198.27 201.724C198.27 228.14 185.479 248.82 177.484 260.16C167.89 273.768 135.911 306.589 100.415 325C62.8392 306.589 31.0973 273.768 20.7868 260.16C19.4389 258.381 18.0881 256.493 16.7584 254.5C7.91628 241.251 0.000400364 223.4 0.000400365 202.525C-0.00306933 197.722 -0.00312382 193.719 0.867594 186.702C2.16232 178.358 4.67393 169.683 8.07572 162.253C11.9935 153.695 15.19 148.892 25.5802 136.884C46.3696 159.298 60.7602 165.462 76.7497 174.507C63.955 184.914 65.6576 191.252 65.5539 197.722C65.5539 207.328 68.4482 213.432 72.4454 218.935C73.6121 220.541 75.0557 222.15 76.7497 223.664C81.5805 227.981 88.4476 231.529 96.737 232.063C101.114 232.344 105.568 231.77 109.365 230.542C114.177 228.985 118.319 226.539 121.997 223.129C124.557 220.755 126.675 218.058 128.281 215.21C128.684 214.496 128.638 214.752 129 214C130.081 211.754 131.372 208.424 131.751 206.527C133.536 197.586 132.337 192.539 131.559 189.717C130.402 185.524 129.032 182.436 126.074 178.472C123.116 174.507 117.408 169.463 110.326 165.462L73.069 144.409C65.1482 139.933 57.5592 135.283 49.5804 128.079C48.1729 126.939 44.5971 123.319 41.0996 118.913C40.4441 118.087 38.6131 115.637 37.5 114C36.1165 111.965 35.4212 110.641 34.5361 108.867C28.7781 98.4606 25.796 86.3007 25.5802 75.2463C25.371 64.5342 27.1791 56.0345 30.457 47.2291C37.5723 28.8177 49.5644 17.6108 61.5566 10.3264C67.5804 6.66725 74.7132 3.73616 82.1337 1.97328C88.1449 0.545194 94.2943 0 101.533 0C116.72 0.800493 127.913 4.80296 138.194 11.2069C157.037 22.9435 167.887 41.6256 171.245 59.0764L117.523 71.244Z" fill="#272727"/>
</svg>
